<svg id="Capa_1" enable-background="new 0 0 512 512" height="512" viewBox="0 0 512 512" width="512" xmlns="http://www.w3.org/2000/svg"><g><path d="m488.043 53.082v-28.113c0-11.06-8.998-20.058-20.059-20.058-11.06 0-20.058 8.998-20.058 20.058v28.494c-5.953 2.743-10.096 8.766-10.096 15.739v292.182c0 4.142 3.357 7.5 7.5 7.5s7.5-3.358 7.5-7.5v-228.326h31.2v300.555h-31.2v-37.333c0-4.142-3.357-7.5-7.5-7.5s-7.5 3.358-7.5 7.5v44.833c0 .637.081 1.271.241 1.888l14.826 56.991c1.869 7.183 8.111 12.008 15.533 12.008s13.663-4.826 15.532-12.009l14.826-56.99c.16-.617.241-1.251.241-1.888v-371.911c.003-7.317-4.558-13.588-10.986-16.12zm-35.211 16.12c0-1.278 1.04-2.318 2.317-2.318h26.565c1.277 0 2.317 1.04 2.317 2.318v17.869h-31.2v-17.869zm15.153-49.291c2.789 0 5.059 2.269 5.059 5.058v26.915h-10.116v-26.915c-.001-2.789 2.268-5.058 5.057-5.058zm-15.153 98.147v-15.986h31.2v15.986zm16.615 378.157c-.081.312-.204.785-1.016.785s-.935-.473-1.016-.785l-12.383-47.602h26.799z"/><path d="m130.221 72.268h118.579c4.142 0 7.5-3.358 7.5-7.5s-3.358-7.5-7.5-7.5h-118.58c-4.142 0-7.5 3.358-7.5 7.5s3.359 7.5 7.501 7.5z"/><path d="m130.221 152.489h223.15c4.143 0 7.5-3.358 7.5-7.5s-3.357-7.5-7.5-7.5h-223.15c-4.142 0-7.5 3.358-7.5 7.5s3.358 7.5 7.5 7.5z"/><path d="m130.221 225.809h223.15c4.143 0 7.5-3.358 7.5-7.5s-3.357-7.5-7.5-7.5h-223.15c-4.142 0-7.5 3.358-7.5 7.5s3.358 7.5 7.5 7.5z"/><path d="m130.221 299.128h223.15c4.143 0 7.5-3.358 7.5-7.5s-3.357-7.5-7.5-7.5h-223.15c-4.142 0-7.5 3.358-7.5 7.5s3.358 7.5 7.5 7.5z"/><path d="m130.221 372.448h223.15c4.143 0 7.5-3.358 7.5-7.5s-3.357-7.5-7.5-7.5h-223.15c-4.142 0-7.5 3.358-7.5 7.5s3.358 7.5 7.5 7.5z"/><path d="m130.221 445.767h223.15c4.143 0 7.5-3.358 7.5-7.5s-3.357-7.5-7.5-7.5h-223.15c-4.142 0-7.5 3.358-7.5 7.5s3.358 7.5 7.5 7.5z"/><path d="m91.664 431.267c0-13.286-10.809-24.094-24.094-24.094h-7.753v-39.445h7.753c13.286 0 24.094-10.809 24.094-24.095s-10.809-24.094-24.094-24.094h-7.753v-39.445h7.753c13.286 0 24.094-10.809 24.094-24.094s-10.809-24.094-24.094-24.094h-7.753v-39.445h7.753c13.286 0 24.094-10.809 24.094-24.095s-10.809-24.094-24.094-24.094h-7.753v-39.445h7.753c13.286 0 24.094-10.809 24.094-24.094s-10.809-24.095-24.095-24.095h-30.507c-13.286 0-24.094 10.809-24.094 24.095s10.809 24.094 24.094 24.094h7.753v39.445h-7.753c-13.286 0-24.094 10.809-24.094 24.094s10.809 24.095 24.094 24.095h7.753v39.445h-7.753c-13.286 0-24.094 10.809-24.094 24.094s10.809 24.094 24.094 24.094h7.753v39.445h-7.753c-13.286 0-24.094 10.809-24.094 24.095s10.809 24.094 24.094 24.094h7.753v39.445h-7.753c-13.286 0-24.094 10.809-24.094 24.094s10.809 24.094 24.094 24.094h30.507c13.286 0 24.095-10.808 24.095-24.094zm-63.696-350.534c0-5.015 4.08-9.095 9.094-9.095h30.507c5.015 0 9.094 4.08 9.094 9.095s-4.08 9.094-9.094 9.094h-30.507c-5.014 0-9.094-4.079-9.094-9.094zm0 87.633c0-5.015 4.08-9.094 9.094-9.094h30.507c5.015 0 9.094 4.08 9.094 9.094s-4.08 9.095-9.094 9.095h-30.507c-5.014 0-9.094-4.08-9.094-9.095zm0 87.634c0-5.015 4.08-9.094 9.094-9.094h30.507c5.015 0 9.094 4.08 9.094 9.094s-4.08 9.094-9.094 9.094h-30.507c-5.014 0-9.094-4.079-9.094-9.094zm0 87.633c0-5.015 4.08-9.094 9.094-9.094h30.507c5.015 0 9.094 4.08 9.094 9.095s-4.08 9.094-9.094 9.094h-30.507c-5.014 0-9.094-4.08-9.094-9.095zm0 87.634c0-5.015 4.08-9.094 9.094-9.094h30.507c5.015 0 9.094 4.08 9.094 9.094s-4.08 9.094-9.094 9.094h-30.507c-5.014 0-9.094-4.079-9.094-9.094z"/><path d="m386.478 0h-310.379c-16.115 0-29.807 12.566-31.17 28.607-.351 4.127 2.711 7.757 6.838 8.108 4.135.346 7.758-2.71 8.108-6.838.709-8.342 7.836-14.877 16.224-14.877h310.379c8.979 0 16.283 7.305 16.283 16.283v449.433c0 8.979-7.305 16.284-16.283 16.284h-310.379c-8.388 0-15.515-6.535-16.224-14.877-.351-4.127-3.973-7.188-8.108-6.838-4.127.351-7.188 3.981-6.838 8.108 1.363 16.041 15.055 28.607 31.17 28.607h310.379c17.25 0 31.283-14.034 31.283-31.284v-449.433c0-17.249-14.033-31.283-31.283-31.283z"/></g></svg>